<svg width="335" height="172" viewBox="0 0 335 172" fill="none" xmlns="http://www.w3.org/2000/svg">
<path d="M125.168 81C124.699 81 124.293 80.8293 123.952 80.488C123.611 80.1467 123.44 79.7413 123.44 79.272V49.96H112.816C112.347 49.96 111.941 49.7893 111.6 49.448C111.259 49.1067 111.088 48.7013 111.088 48.232V37.928C111.088 37.4587 111.259 37.0533 111.6 36.712C111.941 36.3707 112.347 36.2 112.816 36.2H150.32C150.789 36.2 151.195 36.3707 151.536 36.712C151.877 37.0533 152.048 37.4587 152.048 37.928V48.232C152.048 48.7013 151.877 49.1067 151.536 49.448C151.195 49.7893 150.789 49.96 150.32 49.96H139.696V79.272C139.696 79.7413 139.525 80.1467 139.184 80.488C138.843 80.8293 138.437 81 137.968 81H125.168Z" fill="url(#paint0_linear)"/>
<path d="M176.431 81.64C170.031 81.64 164.933 80.168 161.135 77.224C157.338 74.28 155.311 69.992 155.055 64.36C155.013 63.208 154.991 61.352 154.991 58.792C154.991 56.1893 155.013 54.2907 155.055 53.096C155.183 49.4267 156.143 46.2693 157.935 43.624C159.77 40.9787 162.266 38.9733 165.423 37.608C168.581 36.2427 172.25 35.56 176.431 35.56C180.613 35.56 184.282 36.2427 187.439 37.608C190.597 38.9733 193.071 40.9787 194.863 43.624C196.698 46.2693 197.679 49.4267 197.807 53.096C197.893 55.4853 197.935 57.384 197.935 58.792C197.935 60.2 197.893 62.056 197.807 64.36C197.551 69.992 195.525 74.28 191.727 77.224C187.93 80.168 182.831 81.64 176.431 81.64ZM176.431 69.16C177.882 69.16 179.013 68.7333 179.823 67.88C180.677 67.0267 181.125 65.7253 181.167 63.976C181.253 61.5013 181.295 59.688 181.295 58.536C181.295 57.2987 181.253 55.528 181.167 53.224C181.125 51.4747 180.677 50.1733 179.823 49.32C178.97 48.4667 177.839 48.04 176.431 48.04C175.023 48.04 173.893 48.4667 173.039 49.32C172.186 50.1733 171.738 51.4747 171.695 53.224C171.653 54.376 171.631 56.1467 171.631 58.536C171.631 60.9253 171.653 62.7387 171.695 63.976C171.738 65.7253 172.165 67.0267 172.975 67.88C173.829 68.7333 174.981 69.16 176.431 69.16Z" fill="url(#paint1_linear)"/>
<path d="M205.435 81C204.966 81 204.561 80.8293 204.219 80.488C203.878 80.1467 203.707 79.7413 203.707 79.272V37.928C203.707 37.4587 203.878 37.0533 204.219 36.712C204.561 36.3707 204.966 36.2 205.435 36.2H223.867C227.921 36.2 231.526 36.8827 234.683 38.248C237.841 39.6133 240.358 41.6187 242.235 44.264C244.113 46.9093 245.115 50.088 245.243 53.8C245.329 56.1893 245.371 57.8107 245.371 58.664C245.371 59.4747 245.329 61.032 245.243 63.336C244.987 69.224 242.982 73.64 239.227 76.584C235.515 79.528 230.502 81 224.187 81H205.435ZM223.867 68.52C225.361 68.52 226.555 68.0933 227.451 67.24C228.39 66.344 228.902 65.0427 228.987 63.336C229.073 62.0987 229.115 60.4987 229.115 58.536C229.115 56.5307 229.073 54.952 228.987 53.8C228.902 52.0933 228.347 50.8133 227.323 49.96C226.342 49.1067 225.083 48.68 223.547 48.68H219.707V68.52H223.867Z" fill="url(#paint2_linear)"/>
<path d="M271.306 81.64C264.906 81.64 259.808 80.168 256.01 77.224C252.213 74.28 250.186 69.992 249.93 64.36C249.888 63.208 249.866 61.352 249.866 58.792C249.866 56.1893 249.888 54.2907 249.93 53.096C250.058 49.4267 251.018 46.2693 252.81 43.624C254.645 40.9787 257.141 38.9733 260.298 37.608C263.456 36.2427 267.125 35.56 271.306 35.56C275.488 35.56 279.157 36.2427 282.314 37.608C285.472 38.9733 287.946 40.9787 289.738 43.624C291.573 46.2693 292.554 49.4267 292.682 53.096C292.768 55.4853 292.81 57.384 292.81 58.792C292.81 60.2 292.768 62.056 292.682 64.36C292.426 69.992 290.4 74.28 286.602 77.224C282.805 80.168 277.706 81.64 271.306 81.64ZM271.306 69.16C272.757 69.16 273.888 68.7333 274.698 67.88C275.552 67.0267 276 65.7253 276.042 63.976C276.128 61.5013 276.17 59.688 276.17 58.536C276.17 57.2987 276.128 55.528 276.042 53.224C276 51.4747 275.552 50.1733 274.698 49.32C273.845 48.4667 272.714 48.04 271.306 48.04C269.898 48.04 268.768 48.4667 267.914 49.32C267.061 50.1733 266.613 51.4747 266.57 53.224C266.528 54.376 266.506 56.1467 266.506 58.536C266.506 60.9253 266.528 62.7387 266.57 63.976C266.613 65.7253 267.04 67.0267 267.85 67.88C268.704 68.7333 269.856 69.16 271.306 69.16Z" fill="url(#paint3_linear)"/>
<path d="M117.04 141C116.613 141 116.251 140.872 115.952 140.616C115.696 140.317 115.568 139.955 115.568 139.528V97.672C115.568 97.2453 115.696 96.904 115.952 96.648C116.251 96.3493 116.613 96.2 117.04 96.2H120.432C120.859 96.2 121.2 96.3493 121.456 96.648C121.755 96.904 121.904 97.2453 121.904 97.672V135.432H143.152C143.621 135.432 143.984 135.581 144.24 135.88C144.539 136.136 144.688 136.499 144.688 136.968V139.528C144.688 139.955 144.539 140.317 144.24 140.616C143.941 140.872 143.579 141 143.152 141H117.04Z" fill="white"/>
<path d="M171.342 141C170.916 141 170.553 140.872 170.254 140.616C169.998 140.317 169.87 139.955 169.87 139.528V97.672C169.87 97.2453 169.998 96.904 170.254 96.648C170.553 96.3493 170.916 96.2 171.342 96.2H174.734C175.161 96.2 175.502 96.3493 175.758 96.648C176.057 96.904 176.206 97.2453 176.206 97.672V139.528C176.206 139.955 176.057 140.317 175.758 140.616C175.502 140.872 175.161 141 174.734 141H171.342Z" fill="white"/>
<path d="M220.01 141.64C216.469 141.64 213.397 141.085 210.794 139.976C208.234 138.867 206.272 137.416 204.906 135.624C203.541 133.789 202.816 131.827 202.73 129.736C202.73 129.395 202.858 129.096 203.114 128.84C203.413 128.541 203.754 128.392 204.138 128.392H207.402C208.213 128.392 208.768 128.819 209.066 129.672C209.45 131.464 210.538 133 212.33 134.28C214.165 135.56 216.725 136.2 220.01 136.2C223.552 136.2 226.218 135.581 228.01 134.344C229.802 133.064 230.698 131.293 230.698 129.032C230.698 127.581 230.25 126.408 229.354 125.512C228.501 124.616 227.221 123.827 225.514 123.144C223.808 122.461 221.248 121.608 217.834 120.584C214.506 119.645 211.861 118.643 209.898 117.576C207.936 116.509 206.464 115.187 205.482 113.608C204.501 112.029 204.01 110.045 204.01 107.656C204.01 105.352 204.629 103.283 205.866 101.448C207.146 99.6133 208.96 98.184 211.306 97.16C213.653 96.0933 216.448 95.56 219.69 95.56C223.018 95.56 225.877 96.1573 228.266 97.352C230.656 98.504 232.469 99.976 233.706 101.768C234.944 103.56 235.605 105.352 235.69 107.144C235.69 107.485 235.562 107.784 235.306 108.04C235.093 108.296 234.773 108.424 234.346 108.424H230.954C230.058 108.424 229.504 108.019 229.29 107.208C229.034 105.416 228.032 103.944 226.282 102.792C224.533 101.597 222.336 101 219.69 101C216.789 101 214.506 101.555 212.842 102.664C211.178 103.773 210.346 105.416 210.346 107.592C210.346 109.043 210.73 110.237 211.498 111.176C212.309 112.115 213.525 112.947 215.146 113.672C216.768 114.355 219.136 115.144 222.25 116.04C225.877 117.021 228.736 118.045 230.826 119.112C232.917 120.136 234.474 121.437 235.498 123.016C236.522 124.552 237.034 126.515 237.034 128.904C237.034 132.872 235.498 135.987 232.426 138.248C229.354 140.509 225.216 141.64 220.01 141.64Z" fill="white"/>
<path d="M274.427 141C274 141 273.638 140.872 273.339 140.616C273.083 140.317 272.955 139.955 272.955 139.528V101.896H260.667C260.24 101.896 259.878 101.768 259.579 101.512C259.323 101.213 259.195 100.851 259.195 100.424V97.736C259.195 97.3093 259.323 96.9467 259.579 96.648C259.878 96.3493 260.24 96.2 260.667 96.2H291.515C291.984 96.2 292.347 96.3493 292.603 96.648C292.902 96.904 293.051 97.2667 293.051 97.736V100.424C293.051 100.851 292.902 101.213 292.603 101.512C292.304 101.768 291.942 101.896 291.515 101.896H279.291V139.528C279.291 139.955 279.142 140.317 278.843 140.616C278.544 140.872 278.182 141 277.755 141H274.427Z" fill="white"/>
<rect x="38.3137" y="82.4695" width="52" height="16" rx="8" transform="rotate(45 38.3137 82.4695)" fill="url(#paint4_linear)"/>
<rect x="91.7927" y="55" width="16" height="77" rx="8" transform="rotate(30 91.7927 55)" fill="url(#paint5_linear)"/>
<defs>
<linearGradient id="paint0_linear" x1="114.085" y1="59.5" x2="282.022" y2="59.5" gradientUnits="userSpaceOnUse">
<stop stop-color="#FF872C"/>
<stop offset="0.9999" stop-color="#FF302C"/>
<stop offset="1" stop-color="#FF2C2C"/>
</linearGradient>
<linearGradient id="paint1_linear" x1="114.085" y1="59.5" x2="282.022" y2="59.5" gradientUnits="userSpaceOnUse">
<stop stop-color="#FF872C"/>
<stop offset="0.9999" stop-color="#FF302C"/>
<stop offset="1" stop-color="#FF2C2C"/>
</linearGradient>
<linearGradient id="paint2_linear" x1="114.085" y1="59.5" x2="282.022" y2="59.5" gradientUnits="userSpaceOnUse">
<stop stop-color="#FF872C"/>
<stop offset="0.9999" stop-color="#FF302C"/>
<stop offset="1" stop-color="#FF2C2C"/>
</linearGradient>
<linearGradient id="paint3_linear" x1="114.085" y1="59.5" x2="282.022" y2="59.5" gradientUnits="userSpaceOnUse">
<stop stop-color="#FF872C"/>
<stop offset="0.9999" stop-color="#FF302C"/>
<stop offset="1" stop-color="#FF2C2C"/>
</linearGradient>
<linearGradient id="paint4_linear" x1="38.1135" y1="90.4911" x2="90.4394" y2="94.0266" gradientUnits="userSpaceOnUse">
<stop stop-color="#FF872C"/>
<stop offset="1" stop-color="#F10000"/>
</linearGradient>
<linearGradient id="paint5_linear" x1="99.7927" y1="55" x2="99.7927" y2="132" gradientUnits="userSpaceOnUse">
<stop stop-color="#FF872C"/>
<stop offset="1" stop-color="#D02B2B"/>
</linearGradient>
</defs>
</svg>
